# xmcd
#
# Track frame offsets:
#	150
#	11430
#	20576
#	30688
#	38113
#	48082
#	61090
#	76882
#	91065
#	105355
#	116213
#	129703
#	135804
#	148784
#	155993
#	164954
#	177120
#	189746
#	206733
#	215474
#
# Disc length: 3009 seconds
#
# Revision: 1
# Processed by: cddbd v1.5.2PL0 Copyright (c) Steve Scherf et al.
# Submitted via: EZCDAudioConverter 2.1.5.1
#
DISCID=140bbf14
DTITLE=Various Artist - LONG LIVE BLUEGRASS
DYEAR=2005
DGENRE=Bluegrass
TTITLE0=HEIGHTS OF GRASS - BILE 'EM CABBAGE DOWN
TTITLE1=MAC WISEMAN and OSBORNE BROTH. - MIDNIGHT FLYER
TTITLE2=ARTHUS SMITH and DON RENO - 12TH STREET RAG
TTITLE3=RAMONA JONES - WHISKEY BEFORE BREAKFAST
TTITLE4=LESTER FLATT and THE NASHVILLE GRASS - THE BALLAD OF JED CLAMPETT
TTITLE5=MAC WISEMAN and OSBORNE BROTH. - SHACKLES AND CHAINS
TTITLE6=BILL MONROE - WITH BODY AND SOUL
TTITLE7=MERLE TRAVIS - JOHN HENRY
TTITLE8=EDDIE ADCOCK  - BLACK MOUNTAIN RAG                              
TTITLE9=LESTER FLATT and THE NASHVILLE GRASS - ROLL IN MY SWEET BABY'S ARMS
TTITLE10=THE OSBORNE BROTHERS - ( IT'S A LONGWAY ) TO THE TOP OF THE WORLD
TTITLE11=MERLE TRAVIS - WHITE HEAT
TTITLE12=BENNY MARTIN - WABASH CANNONBALL
TTITLE13=RAMONA JONES - CLUCK OL' HEN
TTITLE14=THE GRANDPA JONES FAMILY - AUTOHARP CONCERTO
TTITLE15=THE OSBRONE BROTHERS - ROCKY TOP
TTITLE16=JIM and JESSE - PARADISE
TTITLE17=CARL STORY - ANGEL BAND
TTITLE18=GRANDPA JONES - DAYLIGHT SAVINGS TIME
TTITLE19=THE SOBORNE BROTHERS - Banjos Going Home
EXTD=
EXTT0=
EXTT1=
EXTT2=
EXTT3=
EXTT4=
EXTT5=
EXTT6=
EXTT7=
EXTT8=
EXTT9=
EXTT10=
EXTT11=
EXTT12=
EXTT13=
EXTT14=
EXTT15=
EXTT16=
EXTT17=
EXTT18=
EXTT19=
PLAYORDER=
